<?xml version="1.0" encoding="UTF-8"?>
<svg id="Capa_1" data-name="Capa 1" xmlns="http://www.w3.org/2000/svg" viewBox="0 0 291.93 286.74">
  <defs>
    <style>
      .cls-1 {
        stroke: red;
      }

      .cls-1, .cls-2 {
        stroke-miterlimit: 10;
      }

      .cls-1, .cls-3 {
        fill: red;
      }

      .cls-2 {
        fill: none;
        stroke: #000;
        stroke-width: 6px;
      }
    </style>
  </defs>
  <circle class="cls-2" cx="139.29" cy="152.5" r="131.24"/>
  <path class="cls-1" d="M84.4,90.72c-4.83-14.86-40.03-7.18-46.27-21.03-7.81-17.33,38.05-49.8,34.09-54.89-3.28-4.21-35.92,16.43-52.6,33.02-3.64,3.62-9.12,9.63-13.46,18.51-1.62,3.31-4.08,8.44-5.15,15.67-1.42,9.62,.49,17.14,.94,18.82,3.61,13.38,13.16,21.09,19.35,26.08,0,0,16.94,13.66,39.64,14.42,2.75,.09,5.65-.03,8.31-1.8,5.44-3.61,5.19-10.99,6.73-20.19,3.34-19.94,10.62-21.81,8.41-28.6Z"/>
  <path class="cls-1" d="M202.05,95.45c4.7-14.47,37.26-6.18,46.27-21.03C261.15,53.26,213.63,5.46,219,.71c1.11-.99,3.94,.38,42.06,30.29,11.7,9.18,17.66,13.95,22.71,22.71,2.37,4.11,8.44,14.96,7.57,29.44-.56,9.36-3.76,15.99-6.86,22.4-3.09,6.39-8.85,16.26-19.35,26.08,0,0-16.94,13.66-39.64,14.42-2.75,.09-5.65-.03-8.31-1.8-5.44-3.61-5.19-10.99-6.73-20.19-3.34-19.94-10.62-21.81-8.41-28.6Z"/>
  <path class="cls-1" d="M127.73,228.27c-5.91-1.51-7.38-4.59-10.51-3.48-3.33,1.19-6.01,6.2-4.63,10.63,.86,2.76,3.17,4.89,5.56,5.62,1.97,.61,2.58-.18,4.95,.26,3.4,.63,4.14,2.61,6.73,3.79,3.24,1.47,5.05-.26,13.04-1.68,9.04-1.61,10.27-.03,13.04-2.1,4.53-3.4,6.17-11.36,3.36-14.3-1.26-1.31-5.06-.89-12.62,0-14.72,1.74-16.15,1.97-18.93,1.26Z"/>
  <path class="cls-1" d="M119.45,266.96c7.99-3.9,13.53-3.65,17.25-2.52,4.57,1.39,6.97,4.29,12.62,4.21,1.79-.03,5.64-.08,7.99-2.94,2.03-2.48,2.6-6.63,.84-8.41-1.67-1.69-3.95,.25-7.57-1.26-3.21-1.34-6-4.77-5.89-7.99,.1-2.84,2.39-3.77,1.85-5.05-1.02-2.4-10.99-2.98-15.73,2.1-3.86,4.15-1.54,9.16-5.18,11.36-3.98,2.4-9.06-2.17-11.36,.26-1.53,1.62-.93,5.41,.98,7.74,1.51,1.84,3.5,2.37,4.21,2.52Z"/>
  <polygon class="cls-1" points="127.73 228.27 125.48 217.87 147.99 218.96 146.65 227.01 127.73 228.27"/>
  <path class="cls-3" d="M212.91,150.45c-.28-2.52-.53-4.76-1.32-7.76-1.14-4.39-2.28-6.03-3.41-10.59-.67-2.73-.92-4.79-1.16-6.88-2.94-25.34-3.04-29.58-6.53-33.23-4.28-4.46-10.71-4.98-16.83-5.47-10.53-.84-15.58,3.23-23.13-.42-2.47-1.19-1.65-1.49-7.57-5.47-7.18-4.83-10.78-7.24-13.46-7.15-7.18,.23-7.28,10.52-17.25,14.3-5.45,2.07-6.47-.61-17.67,.84-7.63,.99-12.13,1.58-15.98,4.63-7.11,5.62-7.63,16.12-7.99,23.56-.55,11.14-.83,20.26-.91,27.7-3.64,1.79-6.25,7.6-7.08,9.31-3.53,7.22-2.17,14.6-1.68,17.25,2.23,12.07,10.71,19.82,15.05,23.59l7.85,8.63,9.01,9.91c-.47,.52-.89,1.05-1.21,1.62-3.29,5.9-3.36,12.2-3.36,12.2-.04,3.44,.68,5.81,.84,6.31,.27,.84,1.42,4.27,5.47,8.41,1.99,2.04,9.46,9.67,15.14,7.57,1.56-.58,3.13-1.94,2.94-2.94-.24-1.33-3.38-.85-6.73-2.52-6.03-3-7.76-10.32-7.99-11.36-.51-2.3-1.29-5.82,.42-8.83,.87-1.53,3.02-4.04,14.3-5.47,10.77-1.36,18.36-.27,28.58,1.28,9.61,1.46,12.79,2.65,14.3,5.47,1.69,3.14,.93,6.54,.42,8.83-.02,.08-.04,.19-.07,.32-.13,.56-2.03,8.03-7.92,11.03-3.65,1.86-6.07,.6-7.13,2.51-.83,1.5-.34,4.09,1.12,5.05,.84,.55,2.65,1.02,17.37-9.66,5.2-3.78,7.71-5.75,8.01-8.85,.18-1.86-.55-2.97-1.7-5.87-2.54-6.35-2.48-10.59-3.36-12.2-.71-1.3-1.84-2.48-3.3-3.55,.8-.25,1.61-.5,2.41-.77l.89,4.33,12.69-10.6h-.02c12.84-7.66,24.58-19.85,27.11-31.48,1.08-4.96,1.78-15.22,.84-23.56Zm-105.18,59.27l.83-1.24c.33,.14,.66,.29,1,.43-.64,.26-1.24,.53-1.82,.81Zm3.39-59.05c-5.06-2.13-8.03,1.3-12.2-.42-7.2-2.98-9.48-17.86-5.89-20.19,1.61-1.05,3.11,1.28,13.6,4.55,2,.62,3.36,.98,4.91,2.18,2.31,1.8,3.36,4.16,4.63,7.99,2.58,7.77,2.79,13.95,2.94,13.88-1.1,.45-2.5-5.67-7.99-7.99Zm70.08-.42c-4.17,1.72-7.14-1.71-12.2,.42-5.49,2.32-6.89,8.44-7.99,7.99-1.46-.6,1.99-10.99,2.94-13.88,1.27-3.83,2.32-6.2,4.63-7.99,1.55-1.2,2.9-1.56,4.91-2.18,10.49-3.27,11.99-5.6,13.6-4.55,3.59,2.33,1.31,17.21-5.89,20.19Z"/>
  <path class="cls-3" d="M106.37,210.44c.33-.67,3.89-6.22,3.89-6.22l1.96,6.22h-5.85Z"/>
  <path class="cls-3" d="M167.37,211.89l.33-.11"/>
  <polygon class="cls-3" points="168.99 212.53 171.4 211.76 172.29 216.08 168.99 212.53"/>
  <polygon class="cls-3" points="130.26 216.89 130.26 218.66 143.04 219.33 143.04 213.92 130.26 216.89"/>
</svg>